<svg width="39" height="9" viewBox="0 0 39 9" fill="none" xmlns="http://www.w3.org/2000/svg">
<path d="M5.83117 6.17C5.83117 6.55 5.73117 6.87667 5.53117 7.15C5.33784 7.42333 5.07451 7.63333 4.74117 7.78C4.40784 7.92667 4.04117 8 3.64117 8H0.251172V0.9H3.91117C4.24451 0.9 4.53117 0.99 4.77117 1.17C5.01784 1.34333 5.20451 1.57 5.33117 1.85C5.46451 2.12333 5.53117 2.41 5.53117 2.71C5.53117 3.05667 5.44117 3.38333 5.26117 3.69C5.08784 3.99 4.83784 4.21333 4.51117 4.36C4.91784 4.48 5.23784 4.7 5.47117 5.02C5.71117 5.33333 5.83117 5.71667 5.83117 6.17ZM4.68117 5.96C4.68117 5.76 4.63784 5.58 4.55117 5.42C4.47117 5.25333 4.35784 5.12 4.21117 5.02C4.07117 4.91333 3.90451 4.86 3.71117 4.86H1.37117V7.03H3.64117C3.84117 7.03 4.01784 6.98333 4.17117 6.89C4.33117 6.79 4.45451 6.66 4.54117 6.5C4.63451 6.33333 4.68117 6.15333 4.68117 5.96ZM1.37117 1.87V3.96H3.43117C3.61784 3.96 3.78451 3.91667 3.93117 3.83C4.07784 3.73667 4.19451 3.61333 4.28117 3.46C4.36784 3.3 4.41117 3.12 4.41117 2.92C4.41117 2.71333 4.37117 2.53333 4.29117 2.38C4.21117 2.22 4.10117 2.09667 3.96117 2.01C3.82784 1.91667 3.67117 1.87 3.49117 1.87H1.37117ZM6.99922 8V0.9H8.11922V8H6.99922ZM14.9338 1.89H12.5738V8H11.4438V1.89H9.07383V0.9H14.9338V1.89ZM15.2406 4.4C15.2406 3.96667 15.3173 3.54333 15.4706 3.13C15.624 2.71 15.8473 2.33 16.1406 1.99C16.4406 1.64333 16.804 1.37 17.2306 1.17C17.6573 0.963333 18.1406 0.86 18.6806 0.86C19.3206 0.86 19.874 1.00667 20.3406 1.3C20.8073 1.58667 21.154 1.95667 21.3806 2.41L20.5006 3C20.3673 2.71333 20.1973 2.48667 19.9906 2.32C19.7906 2.15333 19.5706 2.03667 19.3306 1.97C19.0973 1.90333 18.8673 1.87 18.6406 1.87C18.2673 1.87 17.9406 1.94667 17.6606 2.1C17.3806 2.24667 17.144 2.44333 16.9506 2.69C16.764 2.93667 16.6206 3.21333 16.5206 3.52C16.4273 3.82667 16.3806 4.13333 16.3806 4.44C16.3806 4.78 16.4373 5.11 16.5506 5.43C16.664 5.74333 16.8206 6.02333 17.0206 6.27C17.2273 6.51 17.4706 6.7 17.7506 6.84C18.0306 6.98 18.3373 7.05 18.6706 7.05C18.8973 7.05 19.134 7.01 19.3806 6.93C19.6273 6.85 19.854 6.72667 20.0606 6.56C20.274 6.38667 20.4406 6.16 20.5606 5.88L21.4906 6.41C21.344 6.76333 21.114 7.06333 20.8006 7.31C20.494 7.55667 20.1473 7.74333 19.7606 7.87C19.3806 7.99667 19.004 8.06 18.6306 8.06C18.1306 8.06 17.674 7.95667 17.2606 7.75C16.8473 7.53667 16.4906 7.25667 16.1906 6.91C15.8906 6.55667 15.6573 6.16333 15.4906 5.73C15.324 5.29 15.2406 4.84667 15.2406 4.4ZM25.3887 8.05C24.8753 8.05 24.412 7.95 23.9987 7.75C23.5853 7.55 23.2287 7.28 22.9287 6.94C22.6287 6.59333 22.3953 6.20667 22.2287 5.78C22.0687 5.34667 21.9887 4.90333 21.9887 4.45C21.9887 3.97667 22.0753 3.52667 22.2487 3.1C22.422 2.66667 22.662 2.28333 22.9687 1.95C23.2753 1.61 23.6353 1.34333 24.0487 1.15C24.4687 0.95 24.922 0.85 25.4087 0.85C25.9153 0.85 26.3753 0.953333 26.7887 1.16C27.2087 1.36667 27.5653 1.64333 27.8587 1.99C28.1587 2.33667 28.3887 2.72333 28.5487 3.15C28.7153 3.57667 28.7987 4.01333 28.7987 4.46C28.7987 4.93333 28.712 5.38667 28.5387 5.82C28.372 6.24667 28.1353 6.63 27.8287 6.97C27.522 7.30333 27.1587 7.56667 26.7387 7.76C26.3253 7.95333 25.8753 8.05 25.3887 8.05ZM23.1287 4.45C23.1287 4.78333 23.182 5.10667 23.2887 5.42C23.3953 5.73333 23.5453 6.01333 23.7387 6.26C23.9387 6.5 24.1787 6.69 24.4587 6.83C24.7387 6.97 25.052 7.04 25.3987 7.04C25.7587 7.04 26.0787 6.96667 26.3587 6.82C26.6387 6.67333 26.872 6.47667 27.0587 6.23C27.252 5.97667 27.3987 5.69667 27.4987 5.39C27.5987 5.07667 27.6487 4.76333 27.6487 4.45C27.6487 4.11667 27.5953 3.79667 27.4887 3.49C27.3887 3.17667 27.2387 2.9 27.0387 2.66C26.8387 2.41333 26.5987 2.22 26.3187 2.08C26.0453 1.94 25.7387 1.87 25.3987 1.87C25.0387 1.87 24.7187 1.94333 24.4387 2.09C24.1587 2.23667 23.922 2.43333 23.7287 2.68C23.5353 2.92667 23.3853 3.20333 23.2787 3.51C23.1787 3.81667 23.1287 4.13 23.1287 4.45ZM29.9582 8V0.9H31.0782V8H29.9582ZM33.8028 2.98V8H32.6828V0.9H33.6028L37.6228 6.03V0.909999H38.7528V8H37.7728L33.8028 2.98Z" fill="#1D1429"/>
</svg>
