<svg width="44" height="9" viewBox="0 0 44 9" fill="none" xmlns="http://www.w3.org/2000/svg">
<path d="M5.67297 6.17C5.67297 6.55 5.57297 6.87667 5.37297 7.15C5.17964 7.42333 4.9163 7.63333 4.58297 7.78C4.24964 7.92667 3.88297 8 3.48297 8H0.0929688V0.9H3.75297C4.0863 0.9 4.37297 0.99 4.61297 1.17C4.85964 1.34333 5.0463 1.57 5.17297 1.85C5.3063 2.12333 5.37297 2.41 5.37297 2.71C5.37297 3.05667 5.28297 3.38333 5.10297 3.69C4.92964 3.99 4.67964 4.21333 4.35297 4.36C4.75964 4.48 5.07964 4.7 5.31297 5.02C5.55297 5.33333 5.67297 5.71667 5.67297 6.17ZM4.52297 5.96C4.52297 5.76 4.47964 5.58 4.39297 5.42C4.31297 5.25333 4.19964 5.12 4.05297 5.02C3.91297 4.91333 3.7463 4.86 3.55297 4.86H1.21297V7.03H3.48297C3.68297 7.03 3.85964 6.98333 4.01297 6.89C4.17297 6.79 4.2963 6.66 4.38297 6.5C4.4763 6.33333 4.52297 6.15333 4.52297 5.96ZM1.21297 1.87V3.96H3.27297C3.45964 3.96 3.6263 3.91667 3.77297 3.83C3.91964 3.73667 4.0363 3.61333 4.12297 3.46C4.20964 3.3 4.25297 3.12 4.25297 2.92C4.25297 2.71333 4.21297 2.53333 4.13297 2.38C4.05297 2.22 3.94297 2.09667 3.80297 2.01C3.66964 1.91667 3.51297 1.87 3.33297 1.87H1.21297ZM6.84102 8V0.9H7.96102V8H6.84102ZM10.6856 2.98V8H9.56563V0.9H10.4856L14.5056 6.03V0.909999H15.6356V8H14.6556L10.6856 2.98ZM19.2816 0.9H20.3416L23.1016 8H21.9216L21.1716 6.07H18.4316L17.6916 8H16.5016L19.2816 0.9ZM20.9516 5.24L19.8116 2.13L18.6316 5.24H20.9516ZM25.0997 2.98V8H23.9797V0.9H24.8997L28.9197 6.03V0.909999H30.0497V8H29.0697L25.0997 2.98ZM31.1957 4.4C31.1957 3.96667 31.2724 3.54333 31.4257 3.13C31.579 2.71 31.8024 2.33 32.0957 1.99C32.3957 1.64333 32.759 1.37 33.1857 1.17C33.6124 0.963333 34.0957 0.86 34.6357 0.86C35.2757 0.86 35.829 1.00667 36.2957 1.3C36.7624 1.58667 37.109 1.95667 37.3357 2.41L36.4557 3C36.3224 2.71333 36.1524 2.48667 35.9457 2.32C35.7457 2.15333 35.5257 2.03667 35.2857 1.97C35.0524 1.90333 34.8224 1.87 34.5957 1.87C34.2224 1.87 33.8957 1.94667 33.6157 2.1C33.3357 2.24667 33.099 2.44333 32.9057 2.69C32.719 2.93667 32.5757 3.21333 32.4757 3.52C32.3824 3.82667 32.3357 4.13333 32.3357 4.44C32.3357 4.78 32.3924 5.11 32.5057 5.43C32.619 5.74333 32.7757 6.02333 32.9757 6.27C33.1824 6.51 33.4257 6.7 33.7057 6.84C33.9857 6.98 34.2924 7.05 34.6257 7.05C34.8524 7.05 35.089 7.01 35.3357 6.93C35.5824 6.85 35.809 6.72667 36.0157 6.56C36.229 6.38667 36.3957 6.16 36.5157 5.88L37.4457 6.41C37.299 6.76333 37.069 7.06333 36.7557 7.31C36.449 7.55667 36.1024 7.74333 35.7157 7.87C35.3357 7.99667 34.959 8.06 34.5857 8.06C34.0857 8.06 33.629 7.95667 33.2157 7.75C32.8024 7.53667 32.4457 7.25667 32.1457 6.91C31.8457 6.55667 31.6124 6.16333 31.4457 5.73C31.279 5.29 31.1957 4.84667 31.1957 4.4ZM43.3516 7.01V8H38.4816V0.9H43.2616V1.89H39.6016V3.91H42.7716V4.84H39.6016V7.01H43.3516Z" fill="black"/>
</svg>
