<svg width="53" height="9" viewBox="0 0 53 9" fill="none" xmlns="http://www.w3.org/2000/svg">
<path d="M4.91902 7.01V8H0.0490235V0.9H4.82902V1.89H1.16902V3.91H4.33902V4.84H1.16902V7.01H4.91902ZM11.2844 1.89H8.92441V8H7.79441V1.89H5.42441V0.9H11.2844V1.89ZM18.0665 0.9V8H16.9365V4.87H13.3565V8H12.2365V0.9H13.3565V3.87H16.9365V0.9H18.0665ZM24.5382 7.01V8H19.6682V0.9H24.4482V1.89H20.7882V3.91H23.9582V4.84H20.7882V7.01H24.5382ZM25.6936 8V0.9H28.7836C29.1036 0.9 29.3969 0.966666 29.6636 1.1C29.9302 1.23333 30.1602 1.41 30.3536 1.63C30.5536 1.85 30.7069 2.09667 30.8136 2.37C30.9269 2.64333 30.9836 2.92333 30.9836 3.21C30.9836 3.52333 30.9269 3.82333 30.8136 4.11C30.7002 4.39667 30.5369 4.64333 30.3236 4.85C30.1169 5.05667 29.8736 5.20667 29.5936 5.3L31.2636 8H30.0036L28.4636 5.53H26.8136V8H25.6936ZM26.8136 4.54H28.7736C28.9802 4.54 29.1636 4.48 29.3236 4.36C29.4836 4.24 29.6102 4.08 29.7036 3.88C29.7969 3.67333 29.8436 3.45 29.8436 3.21C29.8436 2.96333 29.7902 2.74333 29.6836 2.55C29.5769 2.35 29.4369 2.19 29.2636 2.07C29.0969 1.95 28.9136 1.89 28.7136 1.89H26.8136V4.54ZM37.1749 7.01V8H32.3049V0.9H37.0849V1.89H33.4249V3.91H36.5949V4.84H33.4249V7.01H37.1749ZM41.2903 8.05C40.7236 8.05 40.2436 7.95333 39.8503 7.76C39.4636 7.56667 39.1503 7.30333 38.9103 6.97C38.6769 6.63667 38.5036 6.25667 38.3903 5.83C38.2836 5.40333 38.2303 4.96 38.2303 4.5V0.9H39.3503V4.5C39.3503 4.82667 39.3836 5.14333 39.4503 5.45C39.5169 5.75 39.6236 6.02 39.7703 6.26C39.9169 6.5 40.1136 6.69 40.3603 6.83C40.6136 6.97 40.9236 7.04 41.2903 7.04C41.6636 7.04 41.9736 6.97 42.2203 6.83C42.4736 6.68333 42.6703 6.49 42.8103 6.25C42.9569 6.00333 43.0636 5.73 43.1303 5.43C43.1969 5.13 43.2303 4.82 43.2303 4.5V0.9H44.3603V4.5C44.3603 4.98667 44.3003 5.44667 44.1803 5.88C44.0669 6.30667 43.8869 6.68333 43.6403 7.01C43.4003 7.33 43.0869 7.58333 42.7003 7.77C42.3136 7.95667 41.8436 8.05 41.2903 8.05ZM51.8198 8V2.94L49.7298 6.78H49.0698L46.9698 2.94V8H45.8498V0.9H47.0498L49.3998 5.24L51.7498 0.9H52.9498V8H51.8198Z" fill="black"/>
</svg>
