<svg width="39" height="8" viewBox="0 0 39 8" fill="none" xmlns="http://www.w3.org/2000/svg">
<path d="M6.30102 1.89H3.94102V8H2.81102V1.89H0.441016V0.9H6.30102V1.89ZM12.1231 7.01V8H7.25313V0.9H12.0331V1.89H8.37313V3.91H11.5431V4.84H8.37313V7.01H12.1231ZM18.4885 1.89H16.1285V8H14.9985V1.89H12.6285V0.9H18.4885V1.89ZM25.2706 0.9V8H24.1406V4.87H20.5606V8H19.4406V0.9H20.5606V3.87H24.1406V0.9H25.2706ZM31.7423 7.01V8H26.8723V0.9H31.6523V1.89H27.9923V3.91H31.1623V4.84H27.9923V7.01H31.7423ZM32.8977 8V0.9H35.9877C36.3077 0.9 36.601 0.966666 36.8677 1.1C37.1343 1.23333 37.3643 1.41 37.5577 1.63C37.7577 1.85 37.911 2.09667 38.0177 2.37C38.131 2.64333 38.1877 2.92333 38.1877 3.21C38.1877 3.52333 38.131 3.82333 38.0177 4.11C37.9043 4.39667 37.741 4.64333 37.5277 4.85C37.321 5.05667 37.0777 5.20667 36.7977 5.3L38.4677 8H37.2077L35.6677 5.53H34.0177V8H32.8977ZM34.0177 4.54H35.9777C36.1843 4.54 36.3677 4.48 36.5277 4.36C36.6877 4.24 36.8143 4.08 36.9077 3.88C37.001 3.67333 37.0477 3.45 37.0477 3.21C37.0477 2.96333 36.9943 2.74333 36.8877 2.55C36.781 2.35 36.641 2.19 36.4677 2.07C36.301 1.95 36.1177 1.89 35.9177 1.89H34.0177V4.54Z" fill="black"/>
</svg>
